<?xml version="1.0" encoding="utf-8"?>
<!-- Generator: Adobe Illustrator 15.1.0, SVG Export Plug-In . SVG Version: 6.00 Build 0)  -->
<!DOCTYPE svg PUBLIC "-//W3C//DTD SVG 1.1//EN" "http://www.w3.org/Graphics/SVG/1.1/DTD/svg11.dtd">
<svg version="1.1" id="Layer_1" xmlns="http://www.w3.org/2000/svg" xmlns:xlink="http://www.w3.org/1999/xlink" x="0px" y="0px"
	 width="100px" height="98.878px" viewBox="0 0 100 98.878" enable-background="new 0 0 100 98.878" xml:space="preserve">
<path id="rect3127" inkscape:connector-curvature="0" sodipodi:nodetypes="ccsssccccccccsscccssssccc" fill="#010101" d="
	M93.114,36.206l-3.998,7.553h-1.444c-0.427,0-0.777,0.028-0.777,0.111v2.777c0,0.061,0.295,0.087,0.556,0.111l-2.444,4.666
	l-1.301,9.484l7.854-14.15h5.554v11.665H86.707l-1.152,1.888h12.78c0.423,0,0.777-0.027,0.777-0.11v-0.667v-0.999V46.757h0.111
	c0.423,0,0.777-0.026,0.777-0.111v-2.777c0-0.083-0.354-0.111-0.777-0.111h-5.998l3.109-5.887L93.114,36.206z"/>
<path fill="#010101" d="M88.716,62.669c-5.453,9.393-16.56,11.934-32.075,11.996V71.26h10.552c1.639-0.507,3.804-0.149,5.887-0.562
	l3.555-0.889l6.282-8.236l-4.148,0.271l-4.355,5.862c-14.529,1.44-31.659,0.334-46.094-0.555v2.221l0.667,0.556l4.442,0.444
	c0,0,13.604,0.889,18.993,0.889v3.294l-23.88-1.777c-0.55-1.28-1.25-2.222-2.11-2.888l0.777-3.555c0,0,2.517-1.76,0.982-5.349
	L4.66,56.561l-1-7.775l-3.221-2.555c-1.048,11.593-2.11,27.733,20.881,52.647h58.312c9.444-11.211,15.779-23.279,19.216-36.209
	H88.716z M24.098,61.559l2.777,0.555L26.43,64.78l-2.777-0.556L24.098,61.559z M20.321,60.892l2.776,0.556l-0.555,2.666
	l-2.777-0.556L20.321,60.892z M16.767,60.226l2.332,0.444l-0.444,2.666l-2.444-0.444L16.767,60.226z M13.102,59.56l2.443,0.443
	l-0.444,2.666l-2.444-0.444L13.102,59.56z M9.658,59.004l2.333,0.333l-0.555,2.776L9.103,61.67L9.658,59.004z M6.326,58.337
	l2.11,0.444l-0.444,2.666l-2.11-0.444L6.326,58.337z M4.994,59.56l-0.222-1.556l0.444,0.111L4.994,59.56z M5.66,64.891l-0.333-2.555
	l20.048,3.609l-0.667,3.11c-0.707-0.424-0.781-0.549-1.5-0.944L5.66,64.891z"/>
<path fill="#010101" d="M85.284,11.241H62.077v-0.812l-5.366-0.014V0h-4.248v10.415L47.56,10.43v0.811H21.998v4.46h2.94l0.016,41.54
	l2.799,2.152l24.71-0.014v6.209l4.221,0.018l0.027-6.227h25.508c1.976-14.25,4.381-28.29,0-43.679h3.065V11.241z M52.462,56.484
	H27.848c2.394-13.812,4.072-27.559,0-40.783H47.56v1.225l4.903,0.031V56.484z M79.31,56.484h-22.6V16.957l5.366-0.031v-1.225H79.31
	V56.484z"/>
</svg>
