<svg xmlns="http://www.w3.org/2000/svg" xmlns:xlink="http://www.w3.org/1999/xlink" version="1.1" id="Layer_1" x="0px" y="0px" viewBox="4.5 -9.0 90.0 121.5" enable-background="new 0 0 90 90" xml:space="preserve" height="100px" width="100px">
<g>
	<path d="M80.3,56.5L80.3,56.5l-2.2-4.8l2.7,0l-0.5-23.7l-5.1,7.7l-0.1-8.3h-0.9l-0.2,10l-1.6,2.4L59.6,12.6l0-1.4h-0.4l-0.1,0l0,0   h-0.4l0,1.3l-1.3,3.9c-0.8,0.1-1.7,0.2-2.3,0.1c-7-1.6-14.4,4.8-16.5,14.2c-1.6,7.3,2.8,14.3,7.9,18.9l-1.6,4.8L32.2,28.2l0-0.8   h-0.4l-0.1-0.2l-0.1,0l-0.1,0l-0.1,0.2h-0.1l0,0.3L31,28.5c-0.6,0-1.3,0.2-1.8,0.1c-4.7-1.1-9.7,3.2-11.1,9.6   c-0.9,4,0.8,7.7,3.3,10.7l-3.6,7.7l0.1,0h-0.4H6v0.8h11.5l0.1,1.1c5.4,0,0.3,0.2,5.8,0.2c8.7,0-5.8,20.2,25.5,20.2   c21.7,0,30.7-1,30.7-11.1c0-6.7,4.4-6.1,4.4-6.1v-5H80.3z M25.5,38.9c0.9-4.3,2.4-8.4,5.2-9.8l-5.5,11.6   C25.3,40,25.4,39.5,25.5,38.9z M30.9,56.5h-13l3.6-7.6c1.5,1.7,3.2,3.2,4.8,4.2c1.2,0.7,0,0,3.8,0.5c-3.3-1.5-5.2-7.4-4.9-12.5   L30.9,29c0.1-0.1,0.3-0.1,0.4-0.2L30.9,56.5z M31.3,28.5c-0.1,0-0.1,0-0.2,0l0.2-0.4L31.3,28.5z M49.6,31.8   C51,25.6,53,19.6,57,17.4l-7.7,23.4C48.9,37.7,49,34.6,49.6,31.8z M39.9,61.1c-6.5,0-7.2-4.6-7.2-4.6h-0.3l-0.2-27.4l10,32   C41.4,61.1,40.6,61.1,39.9,61.1z M42.4,61.1L32.2,28.6l0,0l12.6,26l-2.1,6.5C42.6,61.1,42.5,61.1,42.4,61.1z M42.8,61.1l2.1-6.3   l3.1,6.3C46.1,61.1,44.4,61.1,42.8,61.1z M58,61.1c-2.4,0-6.2,0-10,0l0.1,0L45,54.6l1.6-4.9c1.4,1.2,2.8,2.3,4.2,3.2   c1.7,1.1,0,0,5.6,0.7c-3.6-1.7-6.1-6.9-7-12.5l7.8-23.8c0.4-0.2,0.9-0.4,1.3-0.5L58,61.1z M58.6,16.5c-0.3-0.1-0.7-0.1-1.1-0.1   l1.1-3.4L58.6,16.5z M73.7,56.5h-10c0,2.8-3.1,4.6-3.1,4.6s-0.1,0-0.3,0L59.6,13l12.8,27.1l-7.5,11.5l8.9,0.2L73.7,56.5z    M75.4,56.5l0-4.8l2.6,0l2.3,4.8H75.4z"/>
	<polygon points="58,12.6 58,11.2 54.5,11.6 54.8,12 54.3,12.1  "/>
</g>
<text x="0.0" y="105.75" font-size="4.5" font-weight="bold" font-family="Helvetica Neue, Helvetica, Arial-Unicode, Arial, Sans-serif" fill="#000000">Created by frederick allen</text><text x="0.0" y="110.25" font-size="4.5" font-weight="bold" font-family="Helvetica Neue, Helvetica, Arial-Unicode, Arial, Sans-serif" fill="#000000">from the Noun Project</text></svg>