<svg xmlns="http://www.w3.org/2000/svg" xmlns:xlink="http://www.w3.org/1999/xlink" version="1.1" id="Layer_1" x="0px" y="0px" width="90px" height="90px" viewBox="4.5 -9.0 90.0 121.5" enable-background="new 0 0 90 90" xml:space="preserve">
<path d="M67.344,17.065c-2.417-1.96-5.311-3.743-8.183-4.955c-1.42-0.599-2.872-1.1-4.344-1.536  c-2.246-0.824-4.705-1.443-7.401-1.801c-0.028-0.006-0.056-0.013-0.084-0.019c-0.01-0.001-0.019-0.004-0.028-0.006  c0,0.004,0,0.008-0.001,0.011C45.9,8.578,44.438,8.46,42.905,8.423c0,0,19.558,33.864,16.326,49.231c0,0,12.782-13.232,18.14-9.599  c0,0.007,0,0.014,0,0.021c-0.168,6.364-4.583,10.02-9.948,12.548c-3.184,1.501-6.667,2.686-10.372,3.501  c-3.524,0.776-7.246,1.214-11.095,1.273c-0.069-2.857-0.245-6.587-0.654-10.766c3.767,0.114,7.625,1.342,10.577,4.863  c0,0-1.406-8.36-3.73-19.259c-3.47-0.871-6.576-1.174-9.359-1.096c-0.302-1.265-0.633-2.525-0.993-3.774  c2.77-0.28,5.691,0.239,8.289,2.394c0,0-2.307-6.372-5.701-14.608c-2.756-0.18-5.169,0.009-7.293,0.438  c-0.468-0.854-0.962-1.68-1.479-2.478c1.937-0.67,4.12-0.793,6.343,0.319c0,0-2.701-4.16-6.485-9.467  c-5.861,0.965-9.134,3.683-11.04,6.199c1.349,2.172,2.749,4.843,4.182,8.131c0,0,1.971-2.518,4.889-4.205  c0.352,0.611,0.74,1.315,1.159,2.131c-2.902,0.932-5.153,2.326-6.886,3.766c1.123,3.309,2.16,7.297,3.049,12.117  c0,0,3.757-3.025,8.484-4.276c0.342,1.11,0.675,2.271,0.994,3.492c-3.946,0.462-7.146,1.703-9.678,3.13  c0.635,4.323,1.014,9.463,1.024,15.595c0,0,5.261-2.854,11.329-3.347c0.318,3.328,0.496,6.893,0.499,10.689  c-0.083-0.002-0.167-0.001-0.251-0.004c-4.589-0.149-8.982-0.838-13.083-1.969c-8.787-2.422-16.208-6.898-21.2-12.6  c2.105,13.54,10.903,24.744,22.717,29.41c4.003,2.019,8.428,3.215,13.11,3.367c18.81,0.609,34.657-15.713,35.327-36.386  C80.452,36.153,76.095,24.157,67.344,17.065z"/>
<text x="0.0" y="105.75" font-size="4.5" font-weight="bold" font-family="Helvetica Neue, Helvetica, Arial-Unicode, Arial, Sans-serif" fill="#000000">Created by Gilad Sotil</text><text x="0.0" y="110.25" font-size="4.5" font-weight="bold" font-family="Helvetica Neue, Helvetica, Arial-Unicode, Arial, Sans-serif" fill="#000000">from the Noun Project</text></svg>